<svg xmlns="http://www.w3.org/2000/svg" width="512" height="512" style="overflow: visible;" viewBox="0 0 512 512" data-bbox="-8.526512913824497e-14 -5.976562831872673e-16 512.0000000000001 512.0000000000001"><g transform="matrix(1.0704988607875578, 0, 0, 1.0704988607875578, -36.06510106619726, -0.0003930492986709688)" data-uid="o_f3kj2nb74_4"><path d="m429.91 157.95-301.09 301.08c-5.03 5.04-11.58 7.6-18.17 7.71-14.68-10.13-28.25-21.76-40.48-34.68-5.67-5.98-11.05-12.23-16.12-18.73-3.05-3.9-5.98-7.89-8.79-11.97.1-6.59 2.67-13.15 7.71-18.18l301.08-301.09c10.29-10.28 26.97-10.28 37.26 0l38.6 38.6c10.28 10.29 10.28 26.97 0 37.26z" fill="#d9723e" transform="matrix(1, 0, 0, 1, 0, 0)" data-uid="o_f3kj2nb74_6"></path><path d="m415.53 106.32c-10.29-10.29-26.97-10.29-37.26 0l-301.08 301.08c-6.69 6.69-9.03 16.08-7.02 24.66-5.67-5.98-11.05-12.23-16.12-18.73-3.05-3.9-5.98-7.89-8.79-11.97.1-6.59 2.67-13.15 7.71-18.18l301.08-301.09c10.29-10.29 26.97-10.29 37.26 0z" fill="#bd5423" transform="matrix(1, 0, 0, 1, 0, 0)" data-uid="o_f3kj2nb74_7"></path><path d="m174.542 261.581c-4.565-4.565-5.522-11.837-1.913-17.51 4.175-6.562 12.879-8.498 19.442-4.323l92.728 58.988c6.56 4.174 8.498 12.879 4.323 19.441s-12.879 8.498-19.442 4.323l-92.728-58.988c-.889-.565-1.694-1.215-2.41-1.931z" fill="#bd5423" transform="matrix(1, 0, 0, 1, 0, 0)" data-uid="o_f3kj2nb74_8"></path><path d="m128.957 307.167c-4.565-4.565-5.522-11.837-1.913-17.51 4.175-6.562 12.879-8.498 19.442-4.323l92.728 58.988c6.56 4.173 8.498 12.879 4.323 19.441s-12.879 8.498-19.442 4.323l-92.728-58.988c-.889-.566-1.694-1.215-2.41-1.931z" fill="#bd5423" transform="matrix(1, 0, 0, 1, 0, 0)" data-uid="o_f3kj2nb74_9"></path><path d="m83.371 352.753c-4.565-4.565-5.522-11.837-1.913-17.51 4.175-6.562 12.879-8.498 19.442-4.323l92.728 58.988c6.56 4.173 8.498 12.879 4.323 19.441s-12.879 8.498-19.442 4.323l-92.728-58.988c-.889-.566-1.694-1.216-2.41-1.931z" fill="#bd5423" transform="matrix(1, 0, 0, 1, 0, 0)" data-uid="o_f3kj2nb74_10"></path><path d="m328.183 353.322-169.505-169.505 51.684-82.822 99.92-68.781 169.504 169.504-46.679 104.924z" fill="#f6f1f1" transform="matrix(1, 0, 0, 1, 0, 0)" data-uid="o_f3kj2nb74_11"></path><path d="m219.852 162.475 69.087-69.087c11.787-11.787 30.897-11.787 42.684 0l86.989 86.989c11.787 11.787 11.787 30.897 0 42.684l-69.087 69.087c-11.787 11.787-30.897 11.787-42.684 0l-86.989-86.989c-11.786-11.787-11.786-30.897 0-42.684z" fill="#d0e2e7" transform="matrix(1, 0, 0, 1, 0, 0)" data-uid="o_f3kj2nb74_12"></path><path d="m158.678 183.817-29.781-62.958c-4.574-9.67-2.579-21.17 4.985-28.734l84.707-84.707c7.564-7.564 19.065-9.559 28.734-4.985l62.958 29.781z" fill="#d0e2e7" transform="matrix(1, 0, 0, 1, 0, 0)" data-uid="o_f3kj2nb74_13"></path><path d="m511.57 270.9c-.25 4.46-.62 8.89-1.11 13.28-1.23 3.4-3.21 6.56-5.88 9.23l-84.7 84.71c-7.57 7.56-19.07 9.56-28.74 4.98l-62.96-29.78 151.61-151.6 29.78 62.96c.95 2.01 1.62 4.1 2 6.22z" fill="#d0e2e7" transform="matrix(1, 0, 0, 1, 0, 0)" data-uid="o_f3kj2nb74_14"></path><path d="m148.72 458.58-19.73 19.73c-39.63-22.68-72.62-55.67-95.3-95.3l19.73-19.73c6-6 15.71-6 21.71 0l73.59 73.59c6 6 6 15.71 0 21.71z" fill="#f6f1f1" transform="matrix(1, 0, 0, 1, 0, 0)" data-uid="o_f3kj2nb74_15"></path><path d="m100.46 388.61c-5.99-5.99-15.7-5.99-21.7.01l-24.71 24.71c-7.48-9.58-14.29-19.71-20.36-30.32l19.73-19.73c6-6 15.72-6 21.71 0z" fill="#d0e2e7" transform="matrix(1, 0, 0, 1, 0, 0)" data-uid="o_f3kj2nb74_16"></path></g><g transform="matrix(0.22897863727559978, 0.23310484943594073, -0.22388663402006292, 0.21992357109102084, 304.8154833974247, 90.68037773862548)" data-uid="o_f3kj2nb74_17"><path d="m507.867188 14.847656c-.246094-3.410156-1.640626-6.605468-3.914063-9.078125-4.207031-5.394531-11.714844-7.371093-18.167969-4.359375l-.296875.140625c-.222656.101563-.4375.210938-.652343.324219l-373.0625 182.859375c-4.734376 2.320313-7.90625 6.960937-8.34375 12.21875s1.914062 10.359375 6.203124 13.4375l103.65625 74.378906-208.21875 201.449219c-5.394531 5.21875-6.101562 13.625-1.652343 19.667969 2.914062 3.964843 7.453125 6.113281 12.089843 6.113281 2.441407 0 4.910157-.597656 7.179688-1.835938l393.339844-214.753906c4.527344-2.46875 7.46875-7.09375 7.78125-12.242187.316406-5.152344-2.035156-10.101563-6.226563-13.109375l-96.050781-68.917969 181.757812-174.402344c3.214844-3.085937 4.894532-7.445312 4.578126-11.890625zm0 0" fill="#ffd74a" transform="matrix(1.0068778991699219, 0, 0, 1.0068778991699219, -0.668549656867981, -3.159196615219116)" data-uid="o_f3kj2nb74_18"></path><path d="m507.867188 14.847656c-.246094-3.410156-1.640626-6.605468-3.914063-9.078125-4.207031-5.394531-11.714844-7.371093-18.167969-4.359375l-.296875.140625c-.222656.101563-.4375.210938-.652343.324219l-230.632813 113.046875v268.839844l161.824219-88.351563c4.527344-2.472656 7.46875-7.097656 7.78125-12.246094.316406-5.148437-2.035156-10.097656-6.226563-13.105468l-96.050781-68.921875 181.757812-174.398438c3.214844-3.085937 4.894532-7.445312 4.578126-11.890625zm0 0" fill="#fdbf00" transform="matrix(0.9980470538139343, 0, 0, 0.9980470538139343, 2.495062828063965, 0)" data-uid="o_f3kj2nb74_19"></path></g></svg>